<svg id="ic-ecommerce-money" xmlns="http://www.w3.org/2000/svg" width="24" height="24" viewBox="0 0 24 24"><path id="Rectangle_115" data-name="Rectangle 115" fill="none" d="M0 0h24v24H0z"/><g id="ic-ecommerce-money-2" data-name="ic-ecommerce-money"><g id="Layer"><path id="Path_205" data-name="Path 205" d="M20 5H4a3 3 0 00-3 3v8a3 3 0 003 3h16a3 3 0 003-3V8a3 3 0 00-3-3zm-2.91 12H6.91A4.81 4.81 0 003 13.09v-2.18A4.81 4.81 0 006.91 7h10.18A4.81 4.81 0 0021 10.91v2.18A4.81 4.81 0 0017.09 17zM20 7a1 1 0 011 1v.87A2.86 2.86 0 0119.13 7zM4.87 7A2.86 2.86 0 013 8.87V8a1 1 0 011-1zM4 17a1 1 0 01-1-1v-.87A2.86 2.86 0 014.87 17zm15.13 0A2.86 2.86 0 0121 15.13V16a1 1 0 01-1 1z" fill="#0e1317"/></g><g id="Layer-2" data-name="Layer"><path id="Path_206" data-name="Path 206" d="M12.34 8.72a3 3 0 103 3 3 3 0 00-3-3zm0 4a1 1 0 111-1 1 1 0 01-1 1z" fill="#0e1317"/></g></g></svg>