<svg id="ic-furniture-mirror" xmlns="http://www.w3.org/2000/svg" width="24" height="24" viewBox="0 0 24 24"><path id="Rectangle_148" data-name="Rectangle 148" fill="none" d="M0 0h24v24H0z"/><g id="Layer" transform="translate(.3)"><path id="Path_292" data-name="Path 292" d="M4.2 4a3 3 0 013-3h9a3 3 0 013 3v16a3 3 0 01-3 3h-9a3 3 0 01-3-3zm3-1a1 1 0 00-1 1v16a1 1 0 001 1h9a1 1 0 001-1V4a1 1 0 00-1-1z" transform="rotate(-90 11.7 12)" fill="#0e1317" fill-rule="evenodd"/><path id="Path_295" data-name="Path 295" d="M13.7 9a1 1 0 01.36 1.37l-3 5.19a1 1 0 11-1.73-1l3-5.19A1 1 0 0113.7 9z" transform="translate(0 -.495)" fill="#0e1317" fill-rule="evenodd"/><circle id="Ellipse_40" data-name="Ellipse 40" cx="1" cy="1" r="1" transform="translate(12.7 13.505)"/><circle id="Ellipse_41" data-name="Ellipse 41" cx="1" cy="1" r="1" transform="translate(8.7 8.505)"/></g></svg>