<svg id="ic-security-safe" xmlns="http://www.w3.org/2000/svg" width="24" height="24" viewBox="0 0 24 24"><path id="Rectangle_209" data-name="Rectangle 209" fill="none" d="M0 0h24v24H0z"/><g id="Layer"><g id="Vrstva_295" data-name="Vrstva 295" fill="#0e1317"><path id="Path_441" data-name="Path 441" d="M20 1H4a3 3 0 00-3 3v14a3 3 0 003 3h2v1a1 1 0 002 0v-1h8v1a1 1 0 002 0v-1h2a3 3 0 003-3V4a3 3 0 00-3-3zm1 17a1 1 0 01-1 1H4a1 1 0 01-1-1V4a1 1 0 011-1h16a1 1 0 011 1z" fill-rule="evenodd"/><circle id="Ellipse_31" data-name="Ellipse 31" cx="2" cy="2" r="2" transform="translate(10.35 9)"/><path id="Path_442" data-name="Path 442" d="M17.24 14.47a6 6 0 000-6.94l1.11-1.12A1 1 0 1016.94 5l-1.12 1.11a6 6 0 00-6.94 0L7.76 5a1 1 0 00-1.41 1.41l1.11 1.12a6 6 0 000 6.94l-1.11 1.12A1 1 0 107.76 17l1.12-1.11a6 6 0 006.94 0L16.94 17a1 1 0 101.41-1.41zM8.35 11a4 4 0 114 4 4 4 0 01-4-4z" fill-rule="evenodd"/></g></g></svg>